<svg xmlns="http://www.w3.org/2000/svg">
<defs>
<font
       horiz-adv-x="500"
       id="font3933"
       inkscape:label="font 1">
      <font-face
         units-per-em="1024"
         id="font-face3935"
         font-family="Certh" />
      <missing-glyph
         d="M0,0h1000v1024h-1000z"
         id="missing-glyph3937" />
		 
<glyph glyph-name="R100" unicode="a" id="Certh_1"
     d="m 651.81062,303.15691 -345.86817,-160.63139 0,334.7261 345.86817,-174.09471 m -465.64534,606.31386 0,-750.6964 -53.38905,-84.95822 123.49119,-59.88858 572.42341,261.37417 -522.74838,259.98144 0,312.44198 52.9248,87.74375 -123.4912,60.81707 -49.21077,-86.81521"/>
<glyph glyph-name="R101" unicode="b" id="Certh_10"
     d="m 661.55991,909.47077 0,-750.6964 -25.06963,-41.31848 -427.57663,211.23491 -47.81801,-74.28041 133.24049,-49.21078 9.74929,18.10584 425.71963,-212.16339 51.53203,88.67224 0,747.91086 52.9248,87.74376 -123.49119,60.81706 -49.21078,-86.81521"/>
<glyph glyph-name="R102" unicode="c" id="Certh_11"
     d="m 661.55991,158.77437 -17.17733,-36.21173 -426.18388,209.84218 -51.06778,-71.95916 123.49119,-57.10304 13.46331,19.96283 425.71963,-212.16342 53.38902,87.74375 -1.85709,748.83938 52.9248,87.74376 -123.49119,60.81706 -50.1393,-85.42247 0.92838,-499.53575 -452.64626,223.76972 -43.63973,-72.42339 127.20518,-57.10308 10.67784,19.03436 358.40297,-178.73724 0,-187.09376"/>
<glyph glyph-name="R103" unicode="d" id="Certh_12"
     d="m 539.92575,847.72516 52.9248,87.74376 -121.6342,59.88855 -51.06777,-85.8867 -6.03527,-757.66019 -241.41136,184.77252 -49.21077,-57.10308 102.59982,-81.70845 11.14206,12.99909 251.16066,-199.6286 299.44289,219.59144 14.39182,-12.07055 39.92571,35.74744 -93.31473,85.88673 -208.91366,-153.20336 0,660.6314"/>
<glyph glyph-name="R104" unicode="e" id="Certh_13"
     d="m 300.3714,99.8143 0,286.90806 428.50514,488.85797 52.46054,-27.85517 52.9248,87.74376 -123.49119,62.67409 -410.39929,-473.53764 0,323.11979 52.92481,87.74376 -121.63418,59.88855 -51.53203,-85.8867 0,-750.6964 L 127.2052,73.81615 246.98236,12.07054 300.3714,99.8143"/>
<glyph glyph-name="R105" unicode="f" id="Certh_14"
     d="m 300.3714,99.8143 0,291.55059 424.79112,486.07243 56.17456,-29.71216 52.9248,87.74376 -123.49119,62.67409 -410.39929,-474.46615 0,115.13464 190.80782,233.98329 48.74653,-25.06963 52.9248,87.74376 L 493.96473,1000 300.3714,754.87465 l 0,92.85051 52.92481,87.74376 -121.63418,59.88855 -51.53203,-85.8867 0,-750.6964 -51.06779,-85.88673 117.92015,-60.8171 53.38904,87.74376"/>
<glyph glyph-name="R106" unicode="g" id="Certh_15"
     d="m 781.33708,98.88578 0,748.83938 52.9248,87.74375 -121.6342,59.88856 -51.06777,-85.8867 0,-346.79668 -349.11794,371.86631 -122.56267,61.74558 -51.53204,-85.42247 121.63418,-63.13835 25.06962,40.85422 376.50885,-402.97121 0,-326.8338 -53.38906,-84.95822 121.6342,-62.67409 51.53203,87.74372"/>
<glyph glyph-name="R107" unicode="h" id="Certh_16"
     d="m 312.44197,934.5404 -122.56267,61.74558 -51.53204,-85.42247 121.63418,-63.13835 25.06962,31.56919 376.50885,-403.89976 0,-316.62022 -53.38906,-84.95822 121.6342,-62.67409 51.53203,88.67224 0,747.91086 52.9248,87.74375 -123.49119,60.81707 -49.21078,-77.99443 0,-121.63417 -116.99163,122.56268 -122.56268,77.06592 -39.92574,-66.85237 110.02788,-81.70845 24.60537,27.85517 144.8468,-154.13187 0,-158.77437 -349.11794,371.86631"/>
<glyph glyph-name="R108" unicode="i" id="Certh_17"
     d="m 420.14858,909.47077 0,-267.87373 -147.63233,227.0195 40.85424,66.85238 -123.49119,60.81706 -51.53204,-85.42247 75.20892,-38.9972 206.5924,-325.44107 0,-384.86536 -53.38906,-87.74373 121.6342,-62.67409 51.53203,88.67224 0,366.75952 218.66295,392.75766 22.74838,-11.60632 52.9248,87.74376 -123.49119,60.81706 -51.06777,-85.42247 4.6425,-3.24966 -124.41967,-234.44755 0,174.55896 52.9248,87.74376 -121.6342,59.88855 -51.06777,-85.8867"/>
<glyph glyph-name="R109" unicode="j" id="Certh_18"
     d="m 305.94245,646.23954 0,201.48562 52.9248,87.74375 -123.4912,60.81707 -49.21077,-86.81521 0,-750.6964 -53.38905,-84.95822 121.63418,-62.67409 51.53204,88.67224 0,460.07429 L 711.6992,157.3816 661.55991,73.81615 783.19407,11.14206 834.26188,100.74278 305.94245,646.23954"/>
<glyph glyph-name="R110" unicode="k" id="Certh_19"
     d="M 305.94245,298.51438 469.35936,146.23954 425.71962,73.81615 547.35379,11.14203 l 51.53203,89.60075 -292.94337,290.62211 0,168.5237 402.97121,-411.79203 -47.35375,-74.28041 121.63416,-62.67412 51.06781,89.60075 -528.31943,545.49676 0,201.48562 52.9248,87.74375 -123.4912,60.81707 -49.21077,-86.81521 0,-750.6964 -53.38905,-84.95822 121.63418,-62.67409 51.53204,88.67224 0,198.70008"/>
<glyph glyph-name="R111" unicode="l" id="Certh_2"
     d="M 300.3714,471.21635 642.52555,333.33333 300.3714,157.3816 l 0,313.83475 M 710.77069,998.14301 300.3714,624.41967 l 0,223.30549 52.92481,87.74375 -123.49119,60.81707 -51.53203,-85.42247 0,-751.16066 -51.06779,-85.8867 123.49119,-59.88858 579.85147,301.29992 -483.75118,196.84309 395.54317,355.61745 38.99723,-19.96287 52.9248,87.74375 -123.49119,62.6741"/>
<glyph glyph-name="R112" unicode="m" id="Certh_20"
     d="m 302.22843,97.49301 -12.53484,6.03531 373.72335,402.04269 0,-351.90343 -55.24609,-79.85143 121.6342,-62.67412 51.53203,88.67227 0,747.91086 52.9248,87.74376 -123.49119,60.81706 -47.35375,-85.42247 0,-254.87465 -469.82362,-509.74932 -11.14206,7.42804 -55.24606,-79.85143 121.63417,-62.67412 53.38906,86.35098"/>
<glyph glyph-name="R113" unicode="n" id="Certh_21"
     d="m 663.41694,389.5079 -226.55525,-243.26836 -11.14207,7.42804 -55.24608,-79.85143 121.6342,-62.67409 53.38902,86.35095 -12.5348,6.03531 130.45498,137.88298 0,-87.74372 -55.24609,-79.85143 121.6342,-62.67409 51.53203,88.67224 0,747.91086 52.9248,87.74375 -123.49119,60.81707 -47.35375,-85.42247 0,-253.01765 -469.82362,-511.60632 -11.14206,7.42804 -55.24606,-79.85143 121.63417,-62.67412 53.38906,86.35098 -12.53484,6.03531 373.72335,402.04269 0,-116.06311"/>
<glyph glyph-name="R114" unicode="o" id="Certh_22"
     d="m 539.92575,522.74838 0,324.97678 52.9248,87.74376 -123.49119,60.81706 -49.21078,-81.70845 0,-351.90344 L 127.2052,73.81615 248.83937,11.14206 l 53.38906,87.74372 -25.99815,12.07058 143.9183,238.62579 0,-190.80778 -53.38906,-84.95822 121.6342,-62.67409 51.53203,88.67224 0,308.72792 166.20241,-251.16062 -50.60352,-83.56545 122.09842,-62.67409 51.06777,89.60072 -288.76508,422.0056"/>
<glyph glyph-name="R115" unicode="p" id="Certh_23"
     d="m 754.41042,41.78271 82.17271,90.065 -109.56362,84.49396 -41.78271,-46.42524 -191.27207,153.20332 -188.02228,-136.9545 0,661.55991 52.9248,87.74375 -121.63419,59.88856 -51.06778,-85.8867 0,-750.6964 L 132.77623,73.81615 254.41041,11.14203 538.99723,212.62765 754.41042,41.78271"/>
<glyph glyph-name="R116" unicode="q" id="Certh_24"
     d="m 754.41042,41.78271 82.17271,90.065 -109.56362,84.49396 -41.78271,-46.42524 -191.27207,153.20332 -188.02228,-136.9545 0,184.30829 232.12627,163.4169 216.3417,-170.84494 82.17271,90.06497 -109.56362,84.95825 -41.78271,-46.88953 -191.27207,153.20335 -188.02228,-137.88301 0,341.22563 52.9248,87.74376 -121.63419,59.88855 -51.06778,-85.8867 0,-750.6964 L 132.77623,73.81615 256.26742,13.92757 538.99723,212.62765 754.41042,41.78271"/>
<glyph glyph-name="R117" unicode="r" id="Certh_25"
     d="m 665.27393,910.86351 0,-751.16066 L 649.02508,144.38254 423.8626,323.11975 202.41412,159.70285 180.13,184.30826 129.06221,142.52552 217.2702,43.63973 461.0028,211.69914 727.94802,11.14206 l 53.38906,88.67224 0,747.91086 52.9248,87.74376 -123.49119,60.81706 -45.49676,-85.42247"/>
<glyph glyph-name="R118" unicode="s" id="Certh_26"
     d="m 661.55991,909.47077 0,-467.50236 L 423.8626,630.91923 202.41412,467.50233 180.13,492.1077 129.06221,450.32496 217.2702,351.43918 461.0028,519.96284 661.55991,368.61651 l 0,-209.84214 L 649.02508,144.38254 423.8626,323.11975 202.41412,159.70285 180.13,184.30826 129.06221,142.52552 217.2702,43.63973 461.0028,211.69914 727.94802,11.14206 l 53.38906,88.67224 0,747.91086 52.9248,87.74375 -121.6342,59.88856 -51.06777,-85.8867"/>
<glyph glyph-name="R119" unicode="t" id="Certh_27"
     d="m 864.43827,22.74835 82.17271,98.88581 -63.13835,85.42248 -44.56825,-47.35379 -178.73724,231.66204 -132.31197,-149.95359 0,606.31386 53.38906,87.74375 -121.6342,59.88856 -51.53203,-85.8867 0,-714.94897 L 253.4819,383.93685 80.315691,134.63322 50.603527,178.73721 16.713092,134.63322 111.42062,0 292.01488,243.26833 482.35841,9.28503 699.16437,243.26833 864.43827,22.74835"/>
<glyph glyph-name="R120" unicode="u" id="Certh_28"
     d="m 254.41041,11.14203 284.58682,201.48562 215.41319,-170.84494 82.17271,90.065 -109.56362,84.49396 -41.78271,-46.42524 -191.27207,153.20332 -188.02228,-136.9545 0,661.55991 12.07057,18.10584 225.62675,-179.66572 221.44846,163.41691 21.81986,-24.60541 51.53203,41.78274 -88.67223,98.88578 -243.26833,-168.0594 -261.37421,199.62859 -58.96007,-87.74372 0,-750.6964 -51.53204,-85.88673 119.77717,-61.74561"/>
<glyph glyph-name="R121" unicode="v" id="Certh_29"
     d="m 336.11887,446.61094 392.75767,428.96939 52.46054,-27.85517 52.9248,87.74376 -123.49119,62.67409 -410.39929,-435.46892 0,285.05107 52.92481,87.74376 -121.63418,59.88855 -51.53203,-85.8867 0,-750.6964 -52.9248,-84.95822 119.77716,-61.74561 53.38904,87.74376 0,301.29988 401.11422,-264.62393 -38.06868,-62.6741 121.63416,-62.67409 51.53203,89.60072 -500.46426,345.86816"/>
<glyph glyph-name="R122" unicode="w" id="Certh_3"
     d="m 661.55991,157.3816 -25.06963,-37.60446 -319.40577,161.55991 344.4754,158.77436 0,-282.72981 m 0,752.08917 0,-360.25999 -523.21265,-242.33985 591.45779,-295.72887 53.38902,87.74372 0,750.69641 51.06781,85.88673 -123.49119,60.81706 -49.21078,-86.81521"/>
<glyph glyph-name="R123" unicode="x" id="Certh_30"
     d="M 617.92018,522.74838 193.59332,146.23954 182.45126,153.66758 127.2052,73.81615 248.83937,11.14203 l 53.38906,86.35098 -12.53484,6.03531 371.86632,327.76228 0,-272.51623 -53.38906,-84.95822 121.6342,-62.67409 51.53203,87.74372 0,748.83938 52.9248,87.74376 -121.6342,59.88855 -51.06777,-85.8867 0,-346.79668 -349.11794,371.86631 -122.56267,61.74558 -51.53204,-85.42247 121.63418,-63.13835 23.21263,37.1402 334.72611,-362.11698"/>
<glyph glyph-name="R124" unicode="y" id="Certh_31"
     d="m 423.8626,446.61094 0,-287.83657 -52.9248,-84.95822 121.63419,-62.67412 51.06778,83.56548 0,335.65461 48.74652,-12.99909 28.31939,-15.32033 -2.78547,-22.74838 102.59981,-49.67501 43.63973,95.17177 -131.84771,62.67409 -88.67224,24.60541 0,335.65458 53.38902,87.74375 -123.49115,60.81707 -49.67504,-86.81521 0,-379.29435 -49.21078,11.60632 -28.78365,15.3203 -0.92838,24.60541 -102.59981,51.06778 -39.92572,-98.88579 132.31198,-62.67409 89.1365,-24.60541"/>
<glyph glyph-name="R125" unicode="z" id="Certh_32"
     d="m 346.79668,366.75952 74.28041,32.49767 0,-240.48282 -51.53203,-85.88673 117.92014,-60.8171 53.38906,87.74376 0,353.29617 182.45123,73.35193 45.0325,74.28041 -109.56359,58.96007 -38.06872,-62.67409 -79.85142,-34.3547 0,285.05107 53.38902,87.74375 -121.63416,59.88856 -51.53203,-85.8867 0,-402.97124 -178.73725,-76.13741 -43.63974,-71.95916 110.02785,-58.03155 38.06873,66.38811"/>
<glyph glyph-name="R126" unicode="A" id="Certh_33"
     d="m 539.92575,99.8143 0,274.37326 166.20241,-216.80596 -50.60352,-83.56545 122.09842,-62.67409 51.06777,89.60072 -288.76508,373.25908 0,23.21263 294.33613,438.25443 -123.49119,60.81706 -51.06777,-85.42247 19.96284,-10.67781 -139.74001,-207.05663 0,154.59609 52.9248,87.74376 -123.49119,60.81706 -49.21078,-81.70845 0,-285.51533 -169.45219,219.59147 53.38903,86.81525 -123.95542,60.81706 -52.9248,-85.42247 292.94338,-380.68709 0,-14.85608 L 127.2052,73.81615 248.83937,11.14206 l 53.38906,87.74372 -25.99815,12.07058 143.9183,210.3064 0,-162.48839 -53.38906,-84.95822 121.6342,-62.67409 51.53203,88.67224"/>
<glyph glyph-name="R127" unicode="B" id="Certh_34"
     d="M 197.30734,136.49025 164.34541,167.13089 124.41969,121.63416 234.44754,11.14203 843.08266,480.96564 215.41319,996.28598 128.13371,897.4002 228.87651,807.79945 284.12258,864.90252 700.55714,524.60537 197.30734,136.49025"/>
<glyph glyph-name="R128" unicode="C" id="Certh_35"
     d="m 765.08823,872.79479 31.56919,-25.06963 44.56825,38.06872 L 726.09103,992.57196 122.56268,526.4624 749.76789,11.14203 841.22567,104.4568 740.48285,193.59329 681.52278,142.52552 271.58775,482.82263 765.08823,872.79479"/>
<glyph glyph-name="R129" unicode="D" id="Certh_36"
     d="M 834.26188,935.46892 710.77069,996.28598 659.70292,910.86351 679.66576,900.1857 461.0028,577.06592 250.69639,848.65367 304.08542,935.46892 180.13,996.28598 127.2052,910.86351 424.79111,523.67686 186.16528,149.95356 177.34448,157.3816 127.2052,73.81615 248.83937,11.14203 302.22843,98.88578 276.23028,110.95636 494.89324,432.21912 706.12816,157.3816 655.52464,73.81615 777.62306,11.14203 l 51.06777,89.60075 -297.5859,384.86539 244.6611,368.15229 7.42804,-1.85709 51.06781,83.56548"/>
<glyph glyph-name="R130" unicode="E" id="Certh_37"
     d="m 494.89324,432.21912 63.13835,-81.70845 -63.13835,-91.922 -62.67409,81.70845 62.67409,91.922 m -191.7363,75.20892 62.6741,92.38626 58.96007,-76.13744 -62.67409,-93.31474 -58.96008,77.06592 m 286.90807,64.53109 62.67409,-80.77994 -58.96007,-86.35099 -62.6741,80.77997 58.96008,86.35096 m -128.13369,167.59518 58.03155,-75.20889 -58.96007,-87.2795 -58.96007,75.67318 59.88859,86.81521 M 295.26464,690.80778 197.30734,545.49676 326.8338,377.43732 127.2052,73.81615 248.83937,11.14203 302.22843,98.88578 276.23028,110.95636 396.00746,286.90806 528.31943,114.67038 627.20521,259.51718 706.12816,157.3816 663.41694,83.56544 777.62306,11.14203 830.54786,96.5645 664.34542,313.37046 759.51721,453.11047 627.20521,625.34818 834.26188,935.46892 710.77069,996.28598 663.41694,914.57753 679.66576,900.1857 555.71034,717.73444 426.6481,884.86536 331.47633,744.19684 250.69639,848.65367 298.05015,922.00557 180.13,996.28598 127.2052,910.86351 295.26464,690.80778"/>
<glyph glyph-name="R131" unicode="F" id="Certh_38"
     d="m 417.82733,515.32034 -165.73819,-241.87559 0,473.5376 165.73819,-231.66201 m 119.77713,-34.3547 170.84495,235.84029 0,-472.60909 -170.84495,236.7688 m 290.62212,479.10865 -70.10214,36.21169 -298.51441,-415.50604 -287.37233,400.1857 -39.92572,-71.49487 0,-863.97404 68.70938,-34.35467 295.72888,410.86351 287.8366,-397.4002 43.63974,74.28041 0,861.18851"/>
<glyph glyph-name="R132" unicode="G" id="Certh_38a"
     d="m 427.57662,507.42804 -174.55897,-112.34913 0,244.6611 174.55897,-132.31197 m 112.34913,-44.56825 169.45217,107.24234 0,-236.7688 -169.45217,129.52646 m -285.05109,-208.4494 247.91088,175.02322 189.41505,-148.09656 0,-150.41785 -36.21169,-57.10305 119.77713,-58.9601 53.38906,84.02973 0,748.83938 52.9248,87.74375 -121.6342,59.88856 -51.06777,-85.8867 0,-194.52184 -243.73258,-173.16619 -212.62769,175.9517 0,129.99072 52.9248,87.74375 -121.63418,59.88856 -51.53204,-85.8867 0,-750.6964 -51.067779,-85.88673 118.848659,-60.8171 53.38904,87.74376 0.92852,154.59609"/>
<glyph glyph-name="R133" unicode="H" id="Certh_39"
     d="m 539.92575,99.8143 0,747.91086 53.38902,87.74375 -121.63416,59.88856 -51.53203,-85.8867 0,-750.6964 -51.06778,-85.88673 117.92015,-60.8171 52.9248,87.74376"/>
<glyph glyph-name="R134" unicode="I" id="Certh_4"
     d="m 661.55991,157.3816 -22.74838,-37.60446 -323.58405,161.55991 346.33243,158.77436 0,-282.72981 m 0,752.08917 0,-278.55154 -353.76047,304.54969 -123.49117,60.81706 -51.53204,-85.42247 121.63418,-63.13835 25.53389,42.71125 381.61561,-341.22563 -523.21265,-242.33985 591.45779,-295.7289 51.53203,83.56548 0,753.01765 52.9248,87.74375 -123.49119,60.81707 -49.21078,-86.81521"/>
<glyph glyph-name="R135" unicode="J" id="Certh_40"
     d="m 786.90809,235.37603 -0.92837,612.34913 53.38902,87.74375 -121.63416,59.88856 -51.53203,-85.8867 0,-534.35473 -467.0381,389.04367 -19.03435,-32.4977 0,-572.88764 -51.06779,-85.88673 117.92016,-60.8171 53.38903,87.74376 0,508.35655 471.21636,-399.25722 15.32034,26.4624"/>
<glyph glyph-name="R136" unicode="K" id="Certh_41"
     d="m 180.13,309.65644 79.85144,-41.78274 410.86354,283.19407 0,-392.2934 -51.06781,-85.88673 117.92018,-60.8171 52.92476,87.74376 0.92838,594.24328 -73.81615,39.92571 -417.36308,-285.51532 0,399.25719 52.92481,87.74375 -121.63418,59.88856 -51.53203,-85.8867 0,-599.81433"/>
<glyph glyph-name="R137" unicode="L" id="Certh_42"
     d="m 549.21078,667.13092 206.12816,220.51995 45.0325,-39.92571 36.21169,38.06872 L 720.51998,996.28598 475.85888,741.41133 234.44754,996.28598 143.45404,897.4002 247.91087,807.79945 298.05015,857.47448 437.79016,707.05664 125.34819,387.65087 503.71405,9.28503 840.29715,363.0455 549.21078,667.13092 M 514.85612,623.49119 723.30549,408.54222 461.0028,130.9192 244.19685,342.15411 514.85612,623.49119"/>
<glyph glyph-name="R138" unicode="M" id="Certh_43"
     d="M 530.17642,668.98792 692.66484,526.4624 451.25351,340.29712 287.8366,482.82263 530.17642,668.98792 M 548.2823,252.55336 833.33337,480.96564 560.8171,711.69917 751.62492,872.79479 783.19407,845.86817 831.47634,885.79388 715.41322,996.28598 462.85983,794.80036 224.23399,996.28598 132.77623,897.4002 238.16156,807.79945 298.05015,855.61746 415.04178,754.87465 126.2767,526.4624 398.79297,295.26461 207.98515,134.63322 178.27299,159.70285 128.13371,121.63416 244.19685,11.14206 496.75024,212.62765 735.37606,11.14206 826.83384,110.02785 726.09103,193.59329 669.91646,146.23954 548.2823,252.55336"/>
<glyph glyph-name="R139" unicode="N" id="Certh_44"
     d="M 517.64162,621.63416 723.30549,410.39925 457.75304,130.9192 244.19685,342.15411 517.64162,621.63416 m -88.20798,287.83661 0,-205.19964 L 120.24141,387.65087 501.85703,9.28503 841.22567,363.0455 555.71034,656.91738 l 0,190.80778 55.24605,87.74375 -127.20521,59.88856 -54.31754,-85.8867"/>
<glyph glyph-name="R140" unicode="O" id="Certh_45"
     d="m 523.67689,585.42247 195.91458,-205.19964 -259.51718,-247.4466 -209.3779,186.6295 272.9805,266.01674 m -93.31477,327.29806 1.8571,-151.34636 -118.84866,122.56268 -90.99351,-98.88578 105.38533,-89.1365 47.35376,47.35376 57.10308,-57.10305 0,-31.10493 -305.94245,-297.5859 377.43735,-346.33242 335.65459,327.29806 -282.72982,293.40762 104.92109,103.99258 45.49676,-39.92572 36.21169,38.06872 -97.9573,93.77903 -44.56825,-10.21358 -44.10399,-41.78271 0,73.81616 55.24605,87.74372 -128.13369,60.8171 -53.38906,-85.42247"/>
<glyph glyph-name="R141" unicode="P" id="Certh_45a"
     d="m 444.75395,503.71402 0,-321.26279 -183.37976,157.84589 183.37976,163.4169 m 116.99166,38.06872 160.6314,-155.98886 -160.6314,-144.38258 0,300.37144 m 3.71402,194.05755 0,98.88581 10.21355,127.20518 -51.99629,15.32034 -96.10027,-15.32034 10.21354,-129.0622 0,-123.95542 -195.45032,157.84586 -69.63789,-62.67409 95.17178,-77.99443 34.3547,24.60537 129.06221,-110.02785 -296.6574,-273.909 362.117,-308.26371 341.68988,298.97864 -264.62393,248.83937 169.45217,152.27485 38.06872,-34.3547 28.31939,28.78368 L 692.66484,857.47448 565.45963,735.84029"/>
<glyph glyph-name="R142" unicode="Q" id="Certh_46"
     d="m 180.13,158.77437 -51.06779,-85.88673 117.92015,-60.8171 53.38904,87.74376 0,221.44846 361.18851,186.16528 0,-348.65367 -51.53203,-85.88673 117.92014,-60.8171 53.38906,87.74376 0,747.91086 52.9248,87.74375 -121.6342,59.88856 -51.06777,-85.8867 0,-282.26556 -361.18851,-175.02322 0,395.54317 52.92481,87.74375 -121.63418,59.88856 -51.53203,-85.8867 0,-750.6964"/>
<glyph glyph-name="R143" unicode="R" id="Certh_47"
     d="M 661.55991,506.49953 300.3714,330.54779 l 0,112.34913 361.18851,187.0938 0,-123.49119 M 300.3714,99.8143 l 0,99.81429 361.18851,187.09377 0,-227.94799 -51.53203,-85.88673 117.92014,-60.8171 53.38906,87.74376 0,747.91086 52.9248,87.74375 -121.6342,59.88856 -51.06777,-85.8867 0,-159.70288 -361.18851,-175.48748 0,273.44475 52.92481,87.74375 -121.63418,59.88856 -51.53203,-85.8867 0,-750.6964 -51.06779,-85.88673 117.92015,-60.8171 53.38904,87.74376"/>
<glyph glyph-name="R144" unicode="S" id="Certh_48"
     d="M 661.55991,406.68523 300.3714,230.7335 l 0,616.99166 52.92481,87.74376 -121.63418,59.88855 -51.53203,-85.8867 0,-750.6964 -52.9248,-84.95822 121.63417,-62.67412 53.38906,87.74375 479.10865,248.83938 0,500 52.9248,87.74375 -121.6342,59.88856 -51.06777,-85.8867 0,-502.78554"/>
<glyph glyph-name="R145" unicode="T" id="Certh_49"
     d="M 661.55991,404.8282 300.3714,229.80502 l 0,121.63416 361.18851,187.55802 0,-134.169 M 180.13,158.77437 129.06221,72.88764 248.83937,11.14203 l 53.38906,87.74375 479.10865,248.83938 0,500 52.9248,87.74375 -121.6342,59.88856 -51.06777,-85.8867 0,-250.6964 -361.18851,-175.95174 0,364.90253 52.92481,87.74375 -121.63418,59.88856 -51.53203,-85.8867 0,-750.6964"/>
<glyph glyph-name="R146" unicode="U" id="Certh_5"
     d="M 539.92575,442.89692 696.84312,309.65644 539.92575,191.7363 l 0,251.16062 m -119.77717,469.82362 0,-401.57848 L 138.34726,296.19313 488.39372,11.14206 834.26188,264.15968 539.92575,511.14206 l 0,336.5831 52.9248,87.74376 -123.49119,60.81706 -49.21078,-83.56544 m 0,-753.94617 -11.60632,-13.46335 -134.16899,107.24234 145.77531,112.34913 0,-206.12812"/>
<glyph glyph-name="R147" unicode="V" id="Certh_50"
     d="m 415.04178,152.73906 -48.28226,-78.92291 121.6342,-62.67412 53.38902,87.74375 -25.06963,12.07058 246.51812,746.51812 18.10585,-9.74932 52.9248,87.74375 -123.49119,60.81707 -51.06777,-85.42247 1.85709,-1.39291 -213.09194,-662.48842 -192.20055,606.77811 49.67503,81.70846 -123.49119,60.81706 -51.53204,-85.42247 58.03158,-29.71217 226.09099,-728.41228"/>
<glyph glyph-name="R148" unicode="W" id="Certh_51"
     d="M 383.00837,847.72516 436.39743,935.46892 313.83474,996.28598 262.3027,910.86351 320.33427,881.15134 419.22006,569.17362 315.69174,246.98235 125.34819,855.61746 175.02321,935.46892 51.532034,996.28598 0,910.86351 58.031568,881.15134 284.12258,152.73906 235.8403,73.81615 357.47448,11.14206 l 53.38906,87.74372 -25.06966,12.07058 91.45777,276.69451 71.49487,-227.01951 -1.85709,-7.8923 -48.74653,-78.92291 121.63417,-62.67409 53.38906,87.74372 -24.60538,12.07058 246.05384,746.51812 18.10584,-9.74932 53.38906,87.74375 -123.95545,60.81707 -51.06777,-85.42247 1.85709,-1.39291 -216.80596,-665.27393 -72.42338,225.16248 128.59795,388.11516 18.10584,-9.74932 52.92481,87.74376 -123.4912,60.81706 -51.06777,-85.42247 1.8571,-1.39291 -84.95822,-258.5887 -62.67409,196.84309"/>
<glyph glyph-name="R149" unicode="X" id="Certh_51a"
     d="m 506.96382,960.07429 -20.89139,8.35655 -288.76509,-610.95639 0,484.67969 58.96008,87.27947 -118.84866,65.92386 -57.103069,-85.8867 0,-750.6964 L 24.141133,72.88764 155.52461,12.07054 214.48468,99.8143 517.64162,735.84029 754.41042,147.16805 706.59241,73.81615 837.9759,12.07054 l 50.60352,78.92295 -0.92838,760.90995 58.96007,87.27949 -124.88393,56.17454 -57.10307,-85.8867 0,-613.27764 -257.66016,663.88116"/>
<glyph glyph-name="R150" unicode="Y" id="Certh_52"
     d="m 672.70197,910.86351 -0.92838,-4.17828 -164.34538,-505.57105 0,449.39649 1.8571,-0.92838 53.38905,87.74372 -117.92017,58.96007 -51.53203,-85.42247 1.85709,-1.39291 0,-504.64257 -140.66854,450.78926 51.53204,79.85146 -123.49119,60.81706 -51.53203,-85.42247 58.03157,-29.71217 228.87653,-721.44849 -51.06781,-85.88669 121.6342,-62.67413 53.38902,87.74376 -25.06963,12.07057 246.51813,746.51813 18.10585,-9.74933 52.9248,87.74376 -111.88488,57.10304 -49.67503,-81.70845"/>
<glyph glyph-name="R151" unicode="Z" id="Certh_52a"
     d="m 416.89881,160.63136 -48.28226,-78.92294 119.77717,-70.56639 53.38902,87.74375 -25.06963,12.07058 246.51812,746.51812 18.10585,-9.74932 52.9248,87.74375 -121.6342,59.88856 -51.06777,-85.8867 -216.80596,-665.27393 -192.20055,603.52832 53.38905,87.74375 -123.49119,60.81707 -51.53204,-85.42247 58.03157,-29.71217 227.94802,-720.51998 m -21.81986,748.83941 0,-291.55063 62.67409,-91.45774 57.10308,148.56082 0,172.70194 53.38902,87.74375 -121.63416,59.88856 -51.53203,-85.8867"/>
<glyph glyph-name="R152" unicode="À" id="Certh_53"
     d="m 539.92575,439.1829 0,408.54226 52.9248,87.74376 -123.49119,60.81706 -51.53203,-85.42247 2.32128,-1.39291 0,-406.68526 -230.26928,-349.11793 -11.60631,6.03527 -51.06778,-85.8867 121.63417,-62.67412 53.38905,87.74375 -13.46335,6.49953 202.41415,312.90624 1.85709,-4.17828 162.48842,-258.58866 -47.35378,-81.70846 121.6342,-62.67412 53.38902,87.74375 -34.35467,16.71308 -208.91366,323.58404"/>
<glyph glyph-name="R153" unicode="Á" id="Certh_54"
     d="m 539.92575,500 228.8765,354.68894 12.53483,-6.96378 52.9248,87.74375 -123.49119,60.81707 -51.06777,-85.42247 15.78456,-8.82078 -198.70008,-297.5859 -167.13093,259.51718 43.63974,71.49491 -123.49119,60.81706 -51.53203,-85.42247 58.96007,-30.64068 182.91552,-290.15782 0,-431.29064 -2.32129,0.92838 -51.06781,-85.8867 121.6342,-62.67412 53.38903,87.74375 -1.8571,0.92838 0,400.1857"/>
<glyph glyph-name="R154" unicode="Â" id="Certh_55"
     d="m 679.2015,480.96564 0,29.24791 -113.27761,55.24605 -116.06315,-54.31754 0,336.5831 53.38906,87.74376 -123.49119,60.81706 -51.53204,-85.42247 0,-751.16066 -51.06779,-85.8867 121.63419,-62.67412 51.06777,88.67227 0,301.29988 175.02322,78.92295 20.89135,-14.39183 33.42619,15.32034"/>
<glyph glyph-name="R155" unicode="Ã" id="Certh_55a"
     d="m 321.72704,421.07706 70.5664,-76.13741 176.88021,121.63417 17.17734,-9.28507 55.24605,45.49676 -80.31568,72.42341 -167.13093,-122.09845 -17.17733,11.60632 -55.24606,-43.63973"/>
<glyph glyph-name="R156" unicode="Ä" id="Certh_56"
     d="m 289.22934,541.78274 220.51999,-107.7066 0,-275.30177 -1.8571,0.92838 -51.06777,-85.8867 121.63416,-62.67409 53.38906,87.74372 -1.8571,0.92838 0,747.91086 52.92477,87.74376 -123.49116,60.81706 -51.53206,-85.42247 1.85709,-1.39291 0,-396.47171 -194.52184,93.31477 -26.92662,-22.74838 0.92837,-41.78271"/>
<glyph glyph-name="R157" unicode="Å" id="Certh_56a"
     d="m 335.19035,580.77994 c -3e-5,-1.85676 8.66601,-9.90366 25.99815,-24.14112 l 42.71122,-34.81895 11.14206,7.42804 161.55991,-130.91923 55.24606,38.06871 -66.38812,54.7818 -9.74929,-9.28504 -168.98795,135.09748 -51.53204,-36.21169"/>
<glyph glyph-name="R158" unicode="Æ" id="Certh_57"
     d="m 651.81062,493.03622 -345.86817,-160.6314 0,334.7261 345.86817,-174.0947 m 176.88021,-27.39092 -522.74838,259.51718 0,122.56268 52.9248,87.74375 -123.4912,60.81707 -51.06778,-85.42247 1.85699,-1.39291 0,-750.6964 -1.85699,0.92838 -51.53204,-85.8867 121.63418,-62.67409 53.38903,87.74372 -1.8571,0.92838 0,127.20518 522.74839,238.62582"/>
<glyph glyph-name="R159" unicode="Ç" id="Certh_58"
     d="m 309.65647,469.35932 351.90344,157.84589 0,-331.9406 -351.90344,174.09471 m 471.68061,378.36584 52.9248,87.74375 -123.49119,60.81707 -51.06777,-85.42247 1.85709,-1.39291 0,-169.91646 -523.21265,-242.33982 523.21265,-261.83846 0,-76.60166 -1.85709,0.92838 -51.53207,-85.8867 121.6342,-62.67412 53.38902,87.74375 -1.85709,0.92838 0,747.91086"/>
<glyph glyph-name="R160" unicode="È" id="Certh_59"
     d="m 412.72053,480.96564 119.77718,0 0,505.57105 -119.77718,0 0,-505.57105"/>
<glyph glyph-name="R161" unicode="É" id="Certh_6"
     d="m 659.70292,725.16248 -353.76047,-163.4169 0,285.97958 26.4624,41.78274 327.29807,-164.34542 m -7.8923,-422.00557 -345.86817,-160.63139 0,312.90623 22.74838,10.21355 323.11979,-162.48839 M 256.26742,13.92757 828.69083,275.30174 389.5079,493.03622 836.58313,697.7716 235.37605,996.28598 l -51.06778,-85.42247 0,-751.16066 -51.53204,-85.8867 123.49119,-59.88858"/>
<glyph glyph-name="R162" unicode="Ê" id="Certh_60"
     d="m 710.77069,824.97678 -26.4624,-38.06869 -214.94893,209.37789 -49.21078,-85.42247 0,-755.3389 -141.13279,122.09842 23.21264,39.92571 -123.95544,60.8171 -51.06779,-85.88673 121.63417,-62.67409 239.55435,-218.66296 51.53203,87.74372 0,745.12536 119.77717,-110.02785 121.63416,-57.10308 52.9248,87.2795 -123.49119,60.81707"/>
<glyph glyph-name="R163" unicode="Ë" id="Certh_7"
     d="m 307.79944,707.05664 353.76047,162.48838 0,-320.33424 -21.81987,-10.21358 -331.9406,168.05944 m 353.76047,-548.28227 -25.06963,-37.14021 -321.2628,161.55988 346.33243,156.91737 0,-281.33704 M 834.26188,935.46892 705.19964,999.07149 130.91922,733.05478 576.60169,509.28503 138.34726,306.87093 729.80505,11.14203 l 51.53203,85.42247 0,751.16066 52.9248,87.74375"/>
<glyph glyph-name="R164" unicode="Ì" id="Certh_8"
     d="m 186.16528,910.86351 0,-752.08914 L 132.77623,73.81615 256.26742,13.92757 772.51627,245.12532 807.79948,226.091 836.58313,269.73073 720.51998,328.6908 305.94245,141.597 l 0,706.12816 52.9248,87.74375 -123.4912,60.81707 -49.21077,-85.42247"/>
<glyph glyph-name="R165" unicode="Í" id="Certh_9"
     d="m 254.41041,11.14203 502.32126,235.84032 35.74747,-19.03436 30.64068,47.35375 -116.06315,57.10308 -401.11422,-189.8793 0,237.69731 430.82638,205.19964 38.9972,-20.89138 28.31943,47.35378 -114.20616,57.10305 -383.93685,-183.37975 0,362.11699 52.9248,87.74375 -123.4912,60.81707 -49.21077,-79.85143 0,-757.66018 -53.38905,-84.95822 121.63418,-62.67409"/>

    </font>
</defs>
</svg>
